<svg xmlns="http://www.w3.org/2000/svg" width="342.137" height="215.753" viewBox="0 0 342.137 215.753"><path d="M1088.16,400.016c-20.706,0-30.233-11.178-33.958-27.745,65.844-5.383,106.842-36.855,106.842-77.021,0-35.616-20.707-62.534-72.469-62.534-59.219,0-105.185,39.758-105.185,113.882a157.207,157.207,0,0,0,3.862,35.845c-20.841,8.036-37.9,13.327-37.9,13.327v.006c-6.458,1.8-13.885,3.413-19.881,3.413-17.807,0-41-7.455-41-59.631,0-52.593,21.535-57.976,35.2-57.976,11.182,0,17.392,6.21,24.02,14.078L980,262.117c-12.837-17.388-33.543-29.4-60.461-29.4-57.561,0-100.627,39.338-100.627,113.882,0,60.87,28.16,101.871,95.657,101.871a146.089,146.089,0,0,0,42.405-6.241l0,.011s.43-.133,1.052-.334c.877-.272,1.711-.548,2.532-.817,7.361-2.429,25.474-8.692,47.077-18.286,15.212,16.295,38.051,25.667,70.176,25.667,43.895,0,81.578-18.633,81.578-18.633l-12.422-43.07S1112.18,400.016,1088.16,400.016Zm-7.87-120.5c9.113,0,15.738,7.038,15.738,17.393,0,13.25-12.425,32.715-45.138,33.543C1051.718,306.843,1059.174,279.512,1080.291,279.512Z" transform="translate(-818.908 -232.716)" fill="#000"/></svg>